<svg width="16" height="17" viewBox="0 0 16 17" fill="none" xmlns="http://www.w3.org/2000/svg">
<path d="M4.99997 4V2C4.99997 1.86739 5.05265 1.74021 5.14642 1.64645C5.24018 1.55268 5.36736 1.5 5.49997 1.5C5.63258 1.5 5.75975 1.55268 5.85352 1.64645C5.94729 1.74021 5.99997 1.86739 5.99997 2V4C5.99997 4.13261 5.94729 4.25979 5.85352 4.35355C5.75975 4.44732 5.63258 4.5 5.49997 4.5C5.36736 4.5 5.24018 4.44732 5.14642 4.35355C5.05265 4.25979 4.99997 4.13261 4.99997 4ZM7.49997 4.5C7.63258 4.5 7.75975 4.44732 7.85352 4.35355C7.94729 4.25979 7.99997 4.13261 7.99997 4V2C7.99997 1.86739 7.94729 1.74021 7.85352 1.64645C7.75975 1.55268 7.63258 1.5 7.49997 1.5C7.36736 1.5 7.24018 1.55268 7.14642 1.64645C7.05265 1.74021 6.99997 1.86739 6.99997 2V4C6.99997 4.13261 7.05265 4.25979 7.14642 4.35355C7.24018 4.44732 7.36736 4.5 7.49997 4.5ZM9.49997 4.5C9.63258 4.5 9.75976 4.44732 9.85352 4.35355C9.94729 4.25979 9.99997 4.13261 9.99997 4V2C9.99997 1.86739 9.94729 1.74021 9.85352 1.64645C9.75976 1.55268 9.63258 1.5 9.49997 1.5C9.36736 1.5 9.24018 1.55268 9.14642 1.64645C9.05265 1.74021 8.99997 1.86739 8.99997 2V4C8.99997 4.13261 9.05265 4.25979 9.14642 4.35355C9.24018 4.44732 9.36736 4.5 9.49997 4.5ZM15.5 8V8.5C15.4998 9.13597 15.2572 9.74795 14.8217 10.2114C14.3861 10.6748 13.7903 10.9548 13.1556 10.9944C12.8145 11.9591 12.2339 12.8213 11.4681 13.5H13C13.1326 13.5 13.2598 13.5527 13.3535 13.6464C13.4473 13.7402 13.5 13.8674 13.5 14C13.5 14.1326 13.4473 14.2598 13.3535 14.3536C13.2598 14.4473 13.1326 14.5 13 14.5H1.99997C1.86736 14.5 1.74018 14.4473 1.64642 14.3536C1.55265 14.2598 1.49997 14.1326 1.49997 14C1.49997 13.8674 1.55265 13.7402 1.64642 13.6464C1.74018 13.5527 1.86736 13.5 1.99997 13.5H3.53372C2.89578 12.9364 2.38465 12.2439 2.03408 11.4682C1.68351 10.6925 1.50146 9.85124 1.49997 9V6C1.49997 5.86739 1.55265 5.74021 1.64642 5.64645C1.74018 5.55268 1.86736 5.5 1.99997 5.5H13C13.663 5.5 14.2989 5.76339 14.7677 6.23223C15.2366 6.70107 15.5 7.33696 15.5 8ZM12.5 6.5H2.49997V9C2.5019 9.9388 2.7672 10.8582 3.26572 11.6537C3.76424 12.4492 4.47596 13.0889 5.31997 13.5H9.67997C10.524 13.0889 11.2357 12.4492 11.7342 11.6537C12.2327 10.8582 12.498 9.9388 12.5 9V6.5ZM14.5 8C14.4999 7.68989 14.4037 7.38743 14.2246 7.13425C14.0455 6.88107 13.7923 6.68962 13.5 6.58625V9C13.4996 9.31398 13.4745 9.62745 13.425 9.9375C13.7352 9.84585 14.0075 9.65636 14.2012 9.3973C14.395 9.13824 14.4997 8.82349 14.5 8.5V8Z" fill="#06B6D4"/>
</svg>
